G75*
G70*
%OFA0B0*%
%FSLAX24Y24*%
%IPPOS*%
%LPD*%
%AMOC8*
5,1,8,0,0,1.08239X$1,22.5*
%
%ADD10C,0.0760*%
%ADD11R,0.0760X0.0760*%
%ADD12OC8,0.0520*%
%ADD13C,0.0660*%
%ADD14OC8,0.0630*%
%ADD15C,0.0630*%
%ADD16C,0.0560*%
%ADD17C,0.0787*%
%ADD18C,0.0600*%
%ADD19OC8,0.0660*%
%ADD20C,0.0500*%
%ADD21C,0.0500*%
%ADD22C,0.0320*%
%ADD23OC8,0.0700*%
D10*
X028200Y005700D03*
X028200Y006700D03*
X033200Y006700D03*
X033200Y005700D03*
X015900Y012300D03*
X015900Y013300D03*
X015900Y014300D03*
X015900Y015300D03*
X015900Y016300D03*
X015800Y022800D03*
X016800Y022800D03*
X017800Y022800D03*
X018800Y022800D03*
X019800Y022800D03*
X020800Y022800D03*
X021800Y022800D03*
X022800Y022800D03*
X014200Y022800D03*
X013200Y022800D03*
X012200Y022800D03*
X011200Y022800D03*
X010200Y022800D03*
X009200Y022800D03*
X064300Y017700D03*
X064300Y016700D03*
X064300Y015700D03*
X064300Y014700D03*
X064300Y013700D03*
X064300Y012700D03*
X070800Y014700D03*
X070800Y015700D03*
X070800Y016700D03*
D11*
X070800Y013700D03*
D12*
X026200Y007400D03*
X026200Y005400D03*
D13*
X018100Y005000D03*
X018100Y006000D03*
X019400Y006000D03*
X019400Y007000D03*
X018100Y007000D03*
X018100Y008000D03*
X019400Y008000D03*
X019400Y009000D03*
X018100Y009000D03*
X019400Y010000D03*
X019400Y011000D03*
X023400Y011000D03*
X023400Y010000D03*
X023400Y009000D03*
X023400Y008000D03*
X023400Y007000D03*
X023400Y006000D03*
X025100Y022800D03*
X026100Y022800D03*
X027100Y022800D03*
X028100Y022800D03*
X029100Y022800D03*
X030100Y022800D03*
D14*
X030500Y014000D03*
X024400Y014100D03*
D15*
X024400Y013100D03*
X030500Y013000D03*
D16*
X026400Y013100D03*
X026400Y012100D03*
X026400Y014100D03*
D17*
X064380Y020206D02*
X064380Y020994D01*
X066781Y020994D02*
X066781Y020206D01*
X065994Y022490D02*
X065206Y022490D01*
D18*
X032000Y018000D03*
X032000Y017000D03*
X032000Y016000D03*
X063500Y005200D03*
X064500Y005200D03*
X065500Y005200D03*
X065500Y004100D03*
X064500Y004100D03*
X063500Y004100D03*
X063500Y003000D03*
X064500Y003000D03*
X065500Y003000D03*
X065500Y001900D03*
X064500Y001900D03*
X063500Y001900D03*
D19*
X053200Y003800D03*
X052200Y003800D03*
X051200Y003800D03*
X050200Y003800D03*
X049200Y003800D03*
X048200Y003800D03*
X047200Y003800D03*
X046200Y003800D03*
X045200Y003800D03*
X044200Y003800D03*
X042600Y003800D03*
X041600Y003800D03*
X040600Y003800D03*
X039600Y003800D03*
X038600Y003800D03*
X037600Y003800D03*
X036600Y003800D03*
X035600Y003800D03*
X035600Y022800D03*
X036600Y022800D03*
X037600Y022800D03*
X038600Y022800D03*
X039600Y022800D03*
X040600Y022800D03*
X042600Y022800D03*
X043600Y022800D03*
X044600Y022800D03*
X045600Y022800D03*
X046600Y022800D03*
X047600Y022800D03*
X048600Y022800D03*
X049600Y022800D03*
D20*
X045600Y022800D02*
X045600Y022000D01*
X044300Y021300D02*
X043600Y022000D01*
X043600Y022800D01*
X042600Y022800D02*
X042600Y021000D01*
X043500Y020100D01*
X035500Y012100D01*
X030500Y012100D01*
X030500Y013000D01*
X030500Y012100D02*
X026400Y012100D01*
X026400Y013100D02*
X024400Y013100D01*
X024400Y014100D02*
X026400Y014100D01*
X030600Y014100D01*
X030500Y014000D01*
X030600Y014100D02*
X035200Y014100D01*
X039300Y018200D01*
X040100Y018200D01*
X043500Y020100D02*
X062400Y020100D01*
X062900Y020600D01*
X064380Y020600D01*
X065600Y022490D02*
X066781Y021309D01*
X066781Y020600D01*
X066781Y017781D01*
X065700Y016700D01*
X066800Y015600D01*
X066800Y006900D01*
X065500Y005600D01*
X065500Y005200D01*
X065500Y004100D01*
X065500Y003000D01*
X065500Y001900D01*
X064500Y001900D02*
X064500Y003000D01*
X064500Y004100D02*
X064500Y005200D01*
X064500Y006400D01*
X065500Y007400D01*
X065500Y015300D01*
X065100Y015700D01*
X064300Y015700D01*
X050100Y015700D01*
X064300Y016700D02*
X065700Y016700D01*
X060500Y021300D02*
X061690Y022490D01*
X065600Y022490D01*
X060500Y021300D02*
X044300Y021300D01*
D21*
X043600Y022000D03*
X045600Y022000D03*
X047600Y022000D03*
X040600Y020400D03*
X040100Y018200D03*
X050100Y015700D03*
X044200Y013700D03*
X040800Y013700D03*
X036700Y010700D03*
X030900Y010300D03*
X044200Y006300D03*
X046300Y006300D03*
X046300Y005500D03*
X044200Y005500D03*
X059000Y004100D03*
X061800Y012700D03*
X022800Y021300D03*
X021800Y021700D03*
X019000Y019700D03*
X014100Y020800D03*
X009200Y021700D03*
D22*
X009200Y022800D01*
X010200Y022800D02*
X010200Y023600D01*
X009800Y024000D01*
X008300Y024000D01*
X007900Y023600D01*
X007900Y014800D01*
X014700Y008000D01*
X018100Y008000D01*
X019400Y008000D01*
X021300Y008000D01*
X021300Y005200D01*
X024600Y001900D01*
X049100Y001900D01*
X050200Y003000D01*
X050200Y003800D01*
X046300Y005500D02*
X059400Y005500D01*
X060000Y004900D01*
X060000Y004400D01*
X062500Y001900D01*
X063500Y001900D01*
X064500Y001900D02*
X064500Y001400D01*
X064200Y001100D01*
X062000Y001100D01*
X059000Y004100D01*
X060800Y004800D02*
X060800Y005500D01*
X060000Y006300D01*
X046300Y006300D01*
X045800Y007100D02*
X045200Y006500D01*
X045200Y003800D01*
X044200Y003800D02*
X044200Y005500D01*
X043200Y006300D02*
X042600Y005700D01*
X042600Y003800D01*
X041600Y003800D02*
X041600Y006800D01*
X042700Y007900D01*
X060600Y007900D01*
X062400Y006100D01*
X062400Y005600D01*
X062800Y005200D01*
X063500Y005200D01*
X062700Y004100D02*
X061600Y005200D01*
X061600Y005800D01*
X060300Y007100D01*
X045800Y007100D01*
X044200Y006300D02*
X043200Y006300D01*
X037700Y007600D02*
X037700Y012400D01*
X041000Y015700D01*
X050100Y015700D01*
X044200Y013700D02*
X064300Y013700D01*
X064300Y012700D02*
X061800Y012700D01*
X064300Y014700D02*
X043200Y014700D01*
X040600Y012100D01*
X040600Y003800D01*
X039600Y003800D02*
X039600Y012500D01*
X040800Y013700D01*
X035300Y016000D02*
X039600Y020300D01*
X039600Y022800D01*
X038600Y022800D02*
X038600Y020700D01*
X034900Y017000D01*
X032000Y017000D01*
X032000Y016000D02*
X035300Y016000D01*
X034600Y018000D02*
X032000Y018000D01*
X034600Y018000D02*
X037600Y021000D01*
X037600Y022800D01*
X036600Y022800D02*
X036600Y022500D01*
X036100Y022000D01*
X030700Y022000D01*
X030100Y022600D01*
X030100Y021200D01*
X029400Y020500D01*
X019900Y020500D01*
X019300Y021100D01*
X017600Y021100D01*
X016800Y021900D01*
X016800Y022800D01*
X016800Y023600D01*
X016400Y024000D01*
X014500Y024000D01*
X014200Y023700D01*
X014200Y022800D01*
X013200Y022800D02*
X013200Y022000D01*
X013500Y021700D01*
X015400Y021700D01*
X016900Y020200D01*
X018500Y020200D01*
X019000Y019700D01*
X019000Y018100D01*
X016200Y015300D01*
X015900Y015300D01*
X016600Y013300D02*
X018000Y014700D01*
X021300Y014700D01*
X021900Y014100D01*
X024400Y014100D01*
X024400Y013100D02*
X021600Y013100D01*
X020800Y013900D01*
X018600Y013900D01*
X017000Y012300D01*
X015900Y012300D01*
X015900Y009800D01*
X016700Y009000D01*
X018100Y009000D01*
X019400Y009000D01*
X021300Y008000D02*
X023400Y008000D01*
X024300Y008000D01*
X026200Y006100D01*
X026200Y005400D01*
X027900Y005400D01*
X028200Y005700D01*
X028200Y006700D02*
X027500Y007400D01*
X026200Y007400D01*
X024900Y006100D02*
X024000Y007000D01*
X023400Y007000D01*
X024900Y006100D02*
X024900Y005100D01*
X025700Y004300D01*
X033800Y004300D01*
X034400Y004900D01*
X037300Y004900D01*
X037600Y004600D01*
X037600Y003800D01*
X038600Y003800D02*
X038600Y003200D01*
X038100Y002700D01*
X034700Y002700D01*
X033900Y003500D01*
X025200Y003500D01*
X023400Y005300D01*
X023400Y006000D01*
X019400Y006000D02*
X018100Y006000D01*
X018100Y007000D02*
X019400Y007000D01*
X023400Y009000D02*
X028900Y009000D01*
X032200Y005700D01*
X033200Y005700D01*
X035800Y005700D01*
X037700Y007600D01*
X036700Y008300D02*
X036700Y010700D01*
X030900Y010300D02*
X025000Y010300D01*
X024400Y010900D01*
X024400Y013100D01*
X019900Y017800D02*
X016400Y014300D01*
X015900Y014300D01*
X015900Y013300D02*
X014800Y013300D01*
X012400Y015700D01*
X012400Y019800D01*
X013400Y020800D01*
X014100Y020800D01*
X015400Y021700D02*
X015800Y022100D01*
X015800Y022800D01*
X012400Y019800D02*
X010200Y022000D01*
X010200Y022800D01*
X009200Y021700D02*
X011500Y019400D01*
X011500Y015500D01*
X014700Y012300D01*
X015900Y012300D01*
X015900Y013300D02*
X016600Y013300D01*
X019900Y017800D02*
X019900Y020500D01*
X022800Y021300D02*
X022800Y022800D01*
X025100Y022800D01*
X026100Y022800D02*
X026100Y023400D01*
X025700Y023800D01*
X022100Y023800D01*
X021800Y023500D01*
X021800Y022800D01*
X021800Y021700D01*
X029100Y021800D02*
X029100Y022800D01*
X029100Y023400D01*
X029400Y023700D01*
X031000Y023700D01*
X031900Y022800D01*
X035600Y022800D01*
X040600Y022800D02*
X040600Y020400D01*
X047600Y022000D02*
X047600Y022800D01*
X030100Y022800D02*
X030100Y022600D01*
X036700Y008300D02*
X035100Y006700D01*
X033200Y006700D01*
X060800Y004800D02*
X062600Y003000D01*
X063500Y003000D01*
X063500Y004100D02*
X062700Y004100D01*
D23*
X029100Y021800D03*
M02*
