%
M48
M72
T01C0.0236
T02C0.0315
T03C0.0320
T04C0.0354
T05C0.0394
T06C0.0400
T07C0.1260
%
T01
X30900Y10300
X36700Y10700
X40800Y13700
X44200Y13700
X50100Y15700
X40100Y18200
X40600Y20400
X43600Y22000
X45600Y22000
X47600Y22000
X22800Y21300
X21800Y21700
X19000Y19700
X14100Y20800
X9200Y21700
X44200Y6300
X46300Y6300
X46300Y5500
X44200Y5500
X59000Y4100
X61800Y12700
T02
X33200Y6700
X33200Y5700
X28200Y5700
X28200Y6700
X23400Y7000
X23400Y6000
X19400Y6000
X18100Y6000
X18100Y5000
X18100Y7000
X19400Y7000
X19400Y8000
X18100Y8000
X18100Y9000
X19400Y9000
X19400Y10000
X19400Y11000
X15900Y12300
X15900Y13300
X15900Y14300
X15900Y15300
X15900Y16300
X26400Y14100
X26400Y13100
X26400Y12100
X23400Y11000
X23400Y10000
X23400Y9000
X23400Y8000
X22800Y22800
X21800Y22800
X20800Y22800
X19800Y22800
X18800Y22800
X17800Y22800
X16800Y22800
X15800Y22800
X14200Y22800
X13200Y22800
X12200Y22800
X11200Y22800
X10200Y22800
X9200Y22800
T03
X24400Y14100
X24400Y13100
X30500Y13000
X30500Y14000
X26200Y7400
X26200Y5400
T04
X26100Y22800
X25100Y22800
X27100Y22800
X28100Y22800
X29100Y22800
X30100Y22800
T05
X29100Y21800
X35600Y22800
X36600Y22800
X37600Y22800
X38600Y22800
X39600Y22800
X40600Y22800
X42600Y22800
X43600Y22800
X44600Y22800
X45600Y22800
X46600Y22800
X47600Y22800
X48600Y22800
X49600Y22800
X64380Y20600
X66781Y20600
X65600Y22490
X64300Y17700
X64300Y16700
X64300Y15700
X64300Y14700
X64300Y13700
X64300Y12700
X70800Y13700
X70800Y14700
X70800Y15700
X70800Y16700
X53200Y3800
X52200Y3800
X51200Y3800
X50200Y3800
X49200Y3800
X48200Y3800
X47200Y3800
X46200Y3800
X45200Y3800
X44200Y3800
X42600Y3800
X41600Y3800
X40600Y3800
X39600Y3800
X38600Y3800
X37600Y3800
X36600Y3800
X35600Y3800
T06
X63500Y4100
X64500Y4100
X65500Y4100
X65500Y5200
X64500Y5200
X63500Y5200
X63500Y3000
X64500Y3000
X65500Y3000
X65500Y1900
X64500Y1900
X63500Y1900
X32000Y16000
X32000Y17000
X32000Y18000
T07
X2600Y1600
X14100Y3500
X17600Y3500
X3500Y6900
X14100Y10500
X17600Y10500
X19900Y12800
X19900Y15800
X22300Y18300
X25100Y18300
X30100Y18300
X34600Y20800
X16300Y18300
X13700Y18300
X9700Y18300
X2600Y23600
X34600Y9800
X54600Y3800
X67600Y1600
X55100Y22800
X67600Y23600
M30
